# xmcd
#
# Track frame offsets:
#	150
#	4162
#	12653
#	23911
#	39317
#	50940
#	64024
#	71374
#	84532
#	99344
#	114097
#	123491
#	137276
#
# Disc length: 1972 seconds
#
# Revision: 0
# Processed by: cddbd v1.5.2PL0 Copyright (c) Steve Scherf et al.
# Submitted via: dBpowerAMP V4.0
#
DISCID=a207b20d
DTITLE=Peter Pan Speedrock - Pursuit Until Capture
DYEAR=2007
DGENRE=Rock
TTITLE0=Speedfreak Blitzkrieg
TTITLE1=(Hangin' With The) Wrong Crowd
TTITLE2=Evil Sweet Thing
TTITLE3=You Do It Or You Don't
TTITLE4=Bottle-O-Dope
TTITLE5=Cool-School Drop-Out
TTITLE6=S.O.B.S.O.
TTITLE7=Pursuit Until Capture
TTITLE8=Gimme Some
TTITLE9=Straight Back To Hormoneville
TTITLE10=Heatseeker
TTITLE11=Dopefiend
TTITLE12=Sick Boy
EXTD=
EXTT0=
EXTT1=
EXTT2=
EXTT3=
EXTT4=
EXTT5=
EXTT6=
EXTT7=
EXTT8=
EXTT9=
EXTT10=
EXTT11=
EXTT12=
PLAYORDER=
